<mxfile host="app.diagrams.net" agent="Mozilla/5.0 (X11; Ubuntu; Linux x86_64; rv:138.0) Gecko/20100101 Firefox/138.0" version="27.0.6">
  <diagram name="Page-1" id="c37626ed-c26b-45fb-9056-f9ebc6bb27b6">
    <mxGraphModel grid="1" page="1" gridSize="10" guides="1" tooltips="1" connect="1" arrows="1" fold="1" pageScale="1" pageWidth="1100" pageHeight="850" background="none" math="0" shadow="0">
      <root>
        <mxCell id="0" />
        <mxCell id="1" parent="0" />
        <mxCell id="1c7a67bf8fd3230f-49" style="edgeStyle=none;html=1;labelBackgroundColor=none;startFill=0;endArrow=none;endFill=0;strokeWidth=2;fontFamily=Verdana;fontSize=12;entryX=0.5;entryY=0;entryDx=0;entryDy=0;entryPerimeter=0;" edge="1" parent="1" target="1c7a67bf8fd3230f-46">
          <mxGeometry relative="1" as="geometry">
            <mxPoint x="310" y="380" as="sourcePoint" />
          </mxGeometry>
        </mxCell>
        <mxCell id="1c7a67bf8fd3230f-55" style="edgeStyle=none;html=1;labelBackgroundColor=none;startFill=0;endArrow=none;endFill=0;strokeWidth=2;fontFamily=Verdana;fontSize=12;exitX=0.5;exitY=1;exitDx=0;exitDy=0;exitPerimeter=0;" edge="1" parent="1" source="1c7a67bf8fd3230f-46">
          <mxGeometry relative="1" as="geometry">
            <mxPoint x="220" y="600" as="sourcePoint" />
            <mxPoint x="310" y="660" as="targetPoint" />
          </mxGeometry>
        </mxCell>
        <mxCell id="1c7a67bf8fd3230f-46" value="" style="shape=mxgraph.cisco.routers.router;html=1;dashed=0;fillColor=#036897;strokeColor=#ffffff;strokeWidth=2;verticalLabelPosition=bottom;verticalAlign=top;rounded=0;shadow=0;comic=0;fontFamily=Verdana;fontSize=12;" vertex="1" parent="1">
          <mxGeometry x="190" y="492" width="78" height="53" as="geometry" />
        </mxCell>
        <mxCell id="P0-c6NR_3_v5P01_Kzta-1" value="" style="shape=mxgraph.cisco.routers.router;html=1;dashed=0;fillColor=#036897;strokeColor=#ffffff;strokeWidth=2;verticalLabelPosition=bottom;verticalAlign=top;rounded=0;shadow=0;comic=0;fontFamily=Verdana;fontSize=12;" vertex="1" parent="1">
          <mxGeometry x="310" y="350" width="78" height="53" as="geometry" />
        </mxCell>
        <mxCell id="P0-c6NR_3_v5P01_Kzta-2" value="" style="shape=mxgraph.cisco.routers.router;html=1;dashed=0;fillColor=#036897;strokeColor=#ffffff;strokeWidth=2;verticalLabelPosition=bottom;verticalAlign=top;rounded=0;shadow=0;comic=0;fontFamily=Verdana;fontSize=12;" vertex="1" parent="1">
          <mxGeometry x="310" y="630" width="78" height="53" as="geometry" />
        </mxCell>
        <mxCell id="P0-c6NR_3_v5P01_Kzta-3" value="" style="shape=mxgraph.cisco.routers.router;html=1;dashed=0;fillColor=#036897;strokeColor=#ffffff;strokeWidth=2;verticalLabelPosition=bottom;verticalAlign=top;rounded=0;shadow=0;comic=0;fontFamily=Verdana;fontSize=12;" vertex="1" parent="1">
          <mxGeometry x="500" y="350" width="78" height="53" as="geometry" />
        </mxCell>
        <mxCell id="P0-c6NR_3_v5P01_Kzta-4" value="" style="shape=mxgraph.cisco.routers.router;html=1;dashed=0;fillColor=#036897;strokeColor=#ffffff;strokeWidth=2;verticalLabelPosition=bottom;verticalAlign=top;rounded=0;shadow=0;comic=0;fontFamily=Verdana;fontSize=12;" vertex="1" parent="1">
          <mxGeometry x="500" y="630" width="78" height="53" as="geometry" />
        </mxCell>
        <mxCell id="P0-c6NR_3_v5P01_Kzta-5" value="" style="shape=mxgraph.cisco.routers.router;html=1;dashed=0;fillColor=#036897;strokeColor=#ffffff;strokeWidth=2;verticalLabelPosition=bottom;verticalAlign=top;rounded=0;shadow=0;comic=0;fontFamily=Verdana;fontSize=12;" vertex="1" parent="1">
          <mxGeometry x="500" y="492" width="78" height="53" as="geometry" />
        </mxCell>
        <mxCell id="P0-c6NR_3_v5P01_Kzta-6" value="" style="shape=mxgraph.cisco.routers.router;html=1;dashed=0;fillColor=#036897;strokeColor=#ffffff;strokeWidth=2;verticalLabelPosition=bottom;verticalAlign=top;rounded=0;shadow=0;comic=0;fontFamily=Verdana;fontSize=12;" vertex="1" parent="1">
          <mxGeometry x="690" y="350" width="78" height="53" as="geometry" />
        </mxCell>
        <mxCell id="P0-c6NR_3_v5P01_Kzta-7" value="" style="shape=mxgraph.cisco.routers.router;html=1;dashed=0;fillColor=#036897;strokeColor=#ffffff;strokeWidth=2;verticalLabelPosition=bottom;verticalAlign=top;rounded=0;shadow=0;comic=0;fontFamily=Verdana;fontSize=12;" vertex="1" parent="1">
          <mxGeometry x="690" y="630" width="78" height="53" as="geometry" />
        </mxCell>
        <mxCell id="P0-c6NR_3_v5P01_Kzta-8" value="" style="shape=mxgraph.cisco.routers.router;html=1;dashed=0;fillColor=#036897;strokeColor=#ffffff;strokeWidth=2;verticalLabelPosition=bottom;verticalAlign=top;rounded=0;shadow=0;comic=0;fontFamily=Verdana;fontSize=12;" vertex="1" parent="1">
          <mxGeometry x="812" y="492" width="78" height="53" as="geometry" />
        </mxCell>
        <mxCell id="P0-c6NR_3_v5P01_Kzta-9" value="" style="shape=mxgraph.cisco.routers.router;html=1;dashed=0;fillColor=#036897;strokeColor=#ffffff;strokeWidth=2;verticalLabelPosition=bottom;verticalAlign=top;rounded=0;shadow=0;comic=0;fontFamily=Verdana;fontSize=12;" vertex="1" parent="1">
          <mxGeometry x="600" y="219" width="78" height="53" as="geometry" />
        </mxCell>
        <mxCell id="P0-c6NR_3_v5P01_Kzta-11" style="edgeStyle=none;html=1;labelBackgroundColor=none;startFill=0;endArrow=none;endFill=0;strokeWidth=2;fontFamily=Verdana;fontSize=12;entryX=1;entryY=0.5;entryDx=0;entryDy=0;entryPerimeter=0;exitX=0;exitY=0.5;exitDx=0;exitDy=0;exitPerimeter=0;" edge="1" parent="1" source="P0-c6NR_3_v5P01_Kzta-3" target="P0-c6NR_3_v5P01_Kzta-1">
          <mxGeometry relative="1" as="geometry">
            <mxPoint x="320" y="390" as="sourcePoint" />
            <mxPoint x="239" y="502" as="targetPoint" />
          </mxGeometry>
        </mxCell>
        <mxCell id="P0-c6NR_3_v5P01_Kzta-12" style="edgeStyle=none;html=1;labelBackgroundColor=none;startFill=0;endArrow=none;endFill=0;strokeWidth=2;fontFamily=Verdana;fontSize=12;entryX=0.5;entryY=1;entryDx=0;entryDy=0;entryPerimeter=0;exitX=0.5;exitY=0;exitDx=0;exitDy=0;exitPerimeter=0;" edge="1" parent="1" source="P0-c6NR_3_v5P01_Kzta-2" target="P0-c6NR_3_v5P01_Kzta-1">
          <mxGeometry relative="1" as="geometry">
            <mxPoint x="510" y="387" as="sourcePoint" />
            <mxPoint x="398" y="387" as="targetPoint" />
          </mxGeometry>
        </mxCell>
        <mxCell id="P0-c6NR_3_v5P01_Kzta-13" style="edgeStyle=none;html=1;labelBackgroundColor=none;startFill=0;endArrow=none;endFill=0;strokeWidth=2;fontFamily=Verdana;fontSize=12;entryX=0.5;entryY=0;entryDx=0;entryDy=0;entryPerimeter=0;exitX=0.5;exitY=1;exitDx=0;exitDy=0;exitPerimeter=0;" edge="1" parent="1" source="P0-c6NR_3_v5P01_Kzta-3" target="P0-c6NR_3_v5P01_Kzta-5">
          <mxGeometry relative="1" as="geometry">
            <mxPoint x="520" y="397" as="sourcePoint" />
            <mxPoint x="408" y="397" as="targetPoint" />
          </mxGeometry>
        </mxCell>
        <mxCell id="P0-c6NR_3_v5P01_Kzta-14" style="edgeStyle=none;html=1;labelBackgroundColor=none;startFill=0;endArrow=none;endFill=0;strokeWidth=2;fontFamily=Verdana;fontSize=12;entryX=0.5;entryY=0;entryDx=0;entryDy=0;entryPerimeter=0;exitX=0.5;exitY=1;exitDx=0;exitDy=0;exitPerimeter=0;" edge="1" parent="1" source="P0-c6NR_3_v5P01_Kzta-5" target="P0-c6NR_3_v5P01_Kzta-4">
          <mxGeometry relative="1" as="geometry">
            <mxPoint x="530" y="407" as="sourcePoint" />
            <mxPoint x="418" y="407" as="targetPoint" />
          </mxGeometry>
        </mxCell>
        <mxCell id="P0-c6NR_3_v5P01_Kzta-15" style="edgeStyle=none;html=1;labelBackgroundColor=none;startFill=0;endArrow=none;endFill=0;strokeWidth=2;fontFamily=Verdana;fontSize=12;entryX=1;entryY=0.5;entryDx=0;entryDy=0;entryPerimeter=0;exitX=0;exitY=0.5;exitDx=0;exitDy=0;exitPerimeter=0;" edge="1" parent="1" source="P0-c6NR_3_v5P01_Kzta-4" target="P0-c6NR_3_v5P01_Kzta-2">
          <mxGeometry relative="1" as="geometry">
            <mxPoint x="540" y="417" as="sourcePoint" />
            <mxPoint x="428" y="417" as="targetPoint" />
          </mxGeometry>
        </mxCell>
        <mxCell id="P0-c6NR_3_v5P01_Kzta-16" style="edgeStyle=none;html=1;labelBackgroundColor=none;startFill=0;endArrow=none;endFill=0;strokeWidth=2;fontFamily=Verdana;fontSize=12;entryX=1;entryY=0.5;entryDx=0;entryDy=0;entryPerimeter=0;exitX=0;exitY=0.5;exitDx=0;exitDy=0;exitPerimeter=0;" edge="1" parent="1" source="P0-c6NR_3_v5P01_Kzta-7" target="P0-c6NR_3_v5P01_Kzta-4">
          <mxGeometry relative="1" as="geometry">
            <mxPoint x="550" y="427" as="sourcePoint" />
            <mxPoint x="438" y="427" as="targetPoint" />
          </mxGeometry>
        </mxCell>
        <mxCell id="P0-c6NR_3_v5P01_Kzta-17" style="edgeStyle=none;html=1;labelBackgroundColor=none;startFill=0;endArrow=none;endFill=0;strokeWidth=2;fontFamily=Verdana;fontSize=12;entryX=1;entryY=0.5;entryDx=0;entryDy=0;entryPerimeter=0;exitX=0;exitY=0.5;exitDx=0;exitDy=0;exitPerimeter=0;" edge="1" parent="1" source="P0-c6NR_3_v5P01_Kzta-6" target="P0-c6NR_3_v5P01_Kzta-3">
          <mxGeometry relative="1" as="geometry">
            <mxPoint x="560" y="437" as="sourcePoint" />
            <mxPoint x="448" y="437" as="targetPoint" />
          </mxGeometry>
        </mxCell>
        <mxCell id="P0-c6NR_3_v5P01_Kzta-18" style="edgeStyle=none;html=1;labelBackgroundColor=none;startFill=0;endArrow=none;endFill=0;strokeWidth=2;fontFamily=Verdana;fontSize=12;entryX=0.5;entryY=1;entryDx=0;entryDy=0;entryPerimeter=0;exitX=0.5;exitY=0;exitDx=0;exitDy=0;exitPerimeter=0;" edge="1" parent="1" source="P0-c6NR_3_v5P01_Kzta-7" target="P0-c6NR_3_v5P01_Kzta-6">
          <mxGeometry relative="1" as="geometry">
            <mxPoint x="570" y="447" as="sourcePoint" />
            <mxPoint x="458" y="447" as="targetPoint" />
          </mxGeometry>
        </mxCell>
        <mxCell id="P0-c6NR_3_v5P01_Kzta-19" style="edgeStyle=none;html=1;labelBackgroundColor=none;startFill=0;endArrow=none;endFill=0;strokeWidth=2;fontFamily=Verdana;fontSize=12;entryX=1;entryY=0.5;entryDx=0;entryDy=0;entryPerimeter=0;exitX=0.5;exitY=1;exitDx=0;exitDy=0;exitPerimeter=0;" edge="1" parent="1" source="P0-c6NR_3_v5P01_Kzta-8" target="P0-c6NR_3_v5P01_Kzta-7">
          <mxGeometry relative="1" as="geometry">
            <mxPoint x="580" y="457" as="sourcePoint" />
            <mxPoint x="468" y="457" as="targetPoint" />
          </mxGeometry>
        </mxCell>
        <mxCell id="P0-c6NR_3_v5P01_Kzta-20" style="edgeStyle=none;html=1;labelBackgroundColor=none;startFill=0;endArrow=none;endFill=0;strokeWidth=2;fontFamily=Verdana;fontSize=12;entryX=0.5;entryY=0;entryDx=0;entryDy=0;entryPerimeter=0;exitX=1;exitY=0.5;exitDx=0;exitDy=0;exitPerimeter=0;" edge="1" parent="1" source="P0-c6NR_3_v5P01_Kzta-6" target="P0-c6NR_3_v5P01_Kzta-8">
          <mxGeometry relative="1" as="geometry">
            <mxPoint x="590" y="467" as="sourcePoint" />
            <mxPoint x="478" y="467" as="targetPoint" />
          </mxGeometry>
        </mxCell>
        <mxCell id="P0-c6NR_3_v5P01_Kzta-21" style="edgeStyle=none;html=1;labelBackgroundColor=none;startFill=0;endArrow=none;endFill=0;strokeWidth=2;fontFamily=Verdana;fontSize=12;entryX=0.5;entryY=0;entryDx=0;entryDy=0;entryPerimeter=0;exitX=0;exitY=0.5;exitDx=0;exitDy=0;exitPerimeter=0;" edge="1" parent="1" source="P0-c6NR_3_v5P01_Kzta-9" target="P0-c6NR_3_v5P01_Kzta-3">
          <mxGeometry relative="1" as="geometry">
            <mxPoint x="600" y="477" as="sourcePoint" />
            <mxPoint x="488" y="477" as="targetPoint" />
          </mxGeometry>
        </mxCell>
        <mxCell id="P0-c6NR_3_v5P01_Kzta-22" style="edgeStyle=none;html=1;labelBackgroundColor=none;startFill=0;endArrow=none;endFill=0;strokeWidth=2;fontFamily=Verdana;fontSize=12;entryX=1;entryY=0.5;entryDx=0;entryDy=0;entryPerimeter=0;exitX=0.5;exitY=0;exitDx=0;exitDy=0;exitPerimeter=0;" edge="1" parent="1" source="P0-c6NR_3_v5P01_Kzta-6" target="P0-c6NR_3_v5P01_Kzta-9">
          <mxGeometry relative="1" as="geometry">
            <mxPoint x="610" y="487" as="sourcePoint" />
            <mxPoint x="498" y="487" as="targetPoint" />
          </mxGeometry>
        </mxCell>
        <mxCell id="P0-c6NR_3_v5P01_Kzta-24" value="" style="shape=mxgraph.cisco.computers_and_peripherals.terminal;sketch=0;html=1;pointerEvents=1;dashed=0;fillColor=#036897;strokeColor=#ffffff;strokeWidth=2;verticalLabelPosition=bottom;verticalAlign=top;align=center;outlineConnect=0;" vertex="1" parent="1">
          <mxGeometry x="-210" y="479.75" width="90" height="78" as="geometry" />
        </mxCell>
        <mxCell id="P0-c6NR_3_v5P01_Kzta-27" value="" style="shape=mxgraph.cisco.computers_and_peripherals.terminal;sketch=0;html=1;pointerEvents=1;dashed=0;fillColor=#036897;strokeColor=#ffffff;strokeWidth=2;verticalLabelPosition=bottom;verticalAlign=top;align=center;outlineConnect=0;" vertex="1" parent="1">
          <mxGeometry x="1160" y="479.5" width="90" height="78" as="geometry" />
        </mxCell>
        <mxCell id="P0-c6NR_3_v5P01_Kzta-29" style="edgeStyle=none;html=1;labelBackgroundColor=none;startFill=0;endArrow=none;endFill=0;strokeWidth=2;fontFamily=Verdana;fontSize=12;exitX=0;exitY=0.5;exitDx=0;exitDy=0;exitPerimeter=0;entryX=1;entryY=0.5;entryDx=0;entryDy=0;entryPerimeter=0;" edge="1" parent="1" source="1c7a67bf8fd3230f-46" target="1I2WtKxNSLCedIirLF0q-9">
          <mxGeometry relative="1" as="geometry">
            <mxPoint x="320" y="390" as="sourcePoint" />
            <mxPoint x="140" y="520" as="targetPoint" />
          </mxGeometry>
        </mxCell>
        <mxCell id="P0-c6NR_3_v5P01_Kzta-32" style="edgeStyle=none;html=1;labelBackgroundColor=none;startFill=0;endArrow=none;endFill=0;strokeWidth=2;fontFamily=Verdana;fontSize=12;entryX=0.5;entryY=0;entryDx=0;entryDy=0;entryPerimeter=0;exitX=0.5;exitY=1;exitDx=0;exitDy=0;exitPerimeter=0;" edge="1" parent="1" source="1I2WtKxNSLCedIirLF0q-26" target="P0-c6NR_3_v5P01_Kzta-9">
          <mxGeometry relative="1" as="geometry">
            <mxPoint x="639" y="118" as="sourcePoint" />
            <mxPoint x="259" y="522" as="targetPoint" />
          </mxGeometry>
        </mxCell>
        <mxCell id="P0-c6NR_3_v5P01_Kzta-33" value="&lt;font&gt;eth3&lt;/font&gt;" style="text;html=1;align=center;verticalAlign=middle;whiteSpace=wrap;rounded=0;" vertex="1" parent="1">
          <mxGeometry x="370" y="355" width="60" height="30" as="geometry" />
        </mxCell>
        <mxCell id="I27MwGRCCeynss-tv7QH-2" value="&lt;font&gt;eth1&lt;/font&gt;" style="text;html=1;align=center;verticalAlign=middle;whiteSpace=wrap;rounded=0;" vertex="1" parent="1">
          <mxGeometry x="-36" y="496.5" width="60" height="30" as="geometry" />
        </mxCell>
        <mxCell id="I27MwGRCCeynss-tv7QH-3" value="&lt;font&gt;eth2&lt;/font&gt;" style="text;html=1;align=center;verticalAlign=middle;whiteSpace=wrap;rounded=0;rotation=90;" vertex="1" parent="1">
          <mxGeometry x="325" y="602" width="60" height="30" as="geometry" />
        </mxCell>
        <mxCell id="I27MwGRCCeynss-tv7QH-4" value="&lt;font&gt;eth1&lt;/font&gt;" style="text;html=1;align=center;verticalAlign=middle;whiteSpace=wrap;rounded=0;" vertex="1" parent="1">
          <mxGeometry x="458" y="353" width="60" height="30" as="geometry" />
        </mxCell>
        <mxCell id="I27MwGRCCeynss-tv7QH-5" value="&lt;font&gt;eth1&lt;/font&gt;" style="text;html=1;align=center;verticalAlign=middle;whiteSpace=wrap;rounded=0;rotation=90;" vertex="1" parent="1">
          <mxGeometry x="515" y="467" width="60" height="30" as="geometry" />
        </mxCell>
        <mxCell id="I27MwGRCCeynss-tv7QH-6" value="&lt;font&gt;eth2&lt;/font&gt;" style="text;html=1;align=center;verticalAlign=middle;whiteSpace=wrap;rounded=0;rotation=-60;" vertex="1" parent="1">
          <mxGeometry x="560" y="236" width="60" height="30" as="geometry" />
        </mxCell>
        <mxCell id="I27MwGRCCeynss-tv7QH-7" value="&lt;font&gt;eth1&lt;/font&gt;" style="text;html=1;align=center;verticalAlign=middle;whiteSpace=wrap;rounded=0;" vertex="1" parent="1">
          <mxGeometry x="459" y="635" width="60" height="30" as="geometry" />
        </mxCell>
        <mxCell id="I27MwGRCCeynss-tv7QH-8" value="&lt;font&gt;eth2&lt;/font&gt;" style="text;html=1;align=center;verticalAlign=middle;whiteSpace=wrap;rounded=0;rotation=90;" vertex="1" parent="1">
          <mxGeometry x="706" y="602" width="60" height="30" as="geometry" />
        </mxCell>
        <mxCell id="I27MwGRCCeynss-tv7QH-9" value="&lt;div&gt;&lt;font&gt;eth2&lt;/font&gt;&lt;/div&gt;" style="text;html=1;align=center;verticalAlign=middle;whiteSpace=wrap;rounded=0;rotation=60;" vertex="1" parent="1">
          <mxGeometry x="820" y="466" width="60" height="30" as="geometry" />
        </mxCell>
        <mxCell id="I27MwGRCCeynss-tv7QH-10" value="&lt;font&gt;eth1&lt;/font&gt;" style="text;html=1;align=center;verticalAlign=middle;whiteSpace=wrap;rounded=0;" vertex="1" parent="1">
          <mxGeometry x="1059" y="496" width="60" height="30" as="geometry" />
        </mxCell>
        <mxCell id="I27MwGRCCeynss-tv7QH-13" value="&lt;font&gt;eth2&lt;/font&gt;" style="text;html=1;align=center;verticalAlign=middle;whiteSpace=wrap;rounded=0;rotation=90;" vertex="1" parent="1">
          <mxGeometry x="615" y="115" width="60" height="30" as="geometry" />
        </mxCell>
        <mxCell id="I27MwGRCCeynss-tv7QH-14" value="&lt;font&gt;eth3&lt;/font&gt;" style="text;html=1;align=center;verticalAlign=middle;whiteSpace=wrap;rounded=0;" vertex="1" parent="1">
          <mxGeometry x="650" y="354" width="60" height="30" as="geometry" />
        </mxCell>
        <mxCell id="I27MwGRCCeynss-tv7QH-15" value="&lt;font&gt;eth2&lt;/font&gt;" style="text;html=1;align=center;verticalAlign=middle;whiteSpace=wrap;rounded=0;rotation=90;" vertex="1" parent="1">
          <mxGeometry x="325" y="400" width="60" height="30" as="geometry" />
        </mxCell>
        <mxCell id="I27MwGRCCeynss-tv7QH-16" value="&lt;font&gt;eth3&lt;/font&gt;" style="text;html=1;align=center;verticalAlign=middle;whiteSpace=wrap;rounded=0;" vertex="1" parent="1">
          <mxGeometry x="371" y="634" width="60" height="30" as="geometry" />
        </mxCell>
        <mxCell id="I27MwGRCCeynss-tv7QH-22" value="&lt;font&gt;eth2&lt;/font&gt;" style="text;html=1;align=center;verticalAlign=middle;whiteSpace=wrap;rounded=0;rotation=90;" vertex="1" parent="1">
          <mxGeometry x="515" y="602" width="60" height="30" as="geometry" />
        </mxCell>
        <mxCell id="I27MwGRCCeynss-tv7QH-23" value="&lt;font&gt;eth3&lt;/font&gt;" style="text;html=1;align=center;verticalAlign=middle;whiteSpace=wrap;rounded=0;" vertex="1" parent="1">
          <mxGeometry x="560" y="356" width="60" height="30" as="geometry" />
        </mxCell>
        <mxCell id="I27MwGRCCeynss-tv7QH-26" value="&lt;font&gt;eth2&lt;/font&gt;" style="text;html=1;align=center;verticalAlign=middle;whiteSpace=wrap;rounded=0;rotation=90;" vertex="1" parent="1">
          <mxGeometry x="706" y="400" width="60" height="30" as="geometry" />
        </mxCell>
        <mxCell id="I27MwGRCCeynss-tv7QH-27" value="&lt;font&gt;eth3&lt;/font&gt;" style="text;html=1;align=center;verticalAlign=middle;whiteSpace=wrap;rounded=0;" vertex="1" parent="1">
          <mxGeometry x="648" y="635" width="60" height="30" as="geometry" />
        </mxCell>
        <mxCell id="I27MwGRCCeynss-tv7QH-28" value="&lt;div&gt;&lt;font&gt;eth3&lt;/font&gt;&lt;/div&gt;" style="text;html=1;align=center;verticalAlign=middle;whiteSpace=wrap;rounded=0;rotation=56;" vertex="1" parent="1">
          <mxGeometry x="196" y="539" width="60" height="30" as="geometry" />
        </mxCell>
        <mxCell id="I27MwGRCCeynss-tv7QH-29" value="&lt;font&gt;eth3&lt;/font&gt;" style="text;html=1;align=center;verticalAlign=middle;whiteSpace=wrap;rounded=0;rotation=-53;" vertex="1" parent="1">
          <mxGeometry x="824" y="541" width="60" height="30" as="geometry" />
        </mxCell>
        <mxCell id="I27MwGRCCeynss-tv7QH-30" value="&lt;font&gt;eth2&lt;/font&gt;" style="text;html=1;align=center;verticalAlign=middle;whiteSpace=wrap;rounded=0;rotation=90;" vertex="1" parent="1">
          <mxGeometry x="516" y="541" width="60" height="30" as="geometry" />
        </mxCell>
        <mxCell id="I27MwGRCCeynss-tv7QH-31" value="&lt;font&gt;eth3&lt;/font&gt;" style="text;html=1;align=center;verticalAlign=middle;whiteSpace=wrap;rounded=0;rotation=65;" vertex="1" parent="1">
          <mxGeometry x="660" y="242" width="60" height="30" as="geometry" />
        </mxCell>
        <mxCell id="I27MwGRCCeynss-tv7QH-32" value="&lt;div&gt;&lt;font&gt;eth1&lt;/font&gt;&lt;/div&gt;" style="text;html=1;align=center;verticalAlign=middle;whiteSpace=wrap;rounded=0;rotation=0;" vertex="1" parent="1">
          <mxGeometry x="149" y="497" width="60" height="30" as="geometry" />
        </mxCell>
        <mxCell id="I27MwGRCCeynss-tv7QH-34" value="&lt;font&gt;eth1&lt;/font&gt;" style="text;html=1;align=center;verticalAlign=middle;whiteSpace=wrap;rounded=0;rotation=0;" vertex="1" parent="1">
          <mxGeometry x="872" y="496" width="60" height="30" as="geometry" />
        </mxCell>
        <mxCell id="I27MwGRCCeynss-tv7QH-35" value="&lt;font&gt;eth1&lt;/font&gt;" style="text;html=1;align=center;verticalAlign=middle;whiteSpace=wrap;rounded=0;rotation=90;" vertex="1" parent="1">
          <mxGeometry x="615" y="193" width="60" height="30" as="geometry" />
        </mxCell>
        <mxCell id="I27MwGRCCeynss-tv7QH-38" value="&lt;div&gt;&lt;font&gt;eth1&lt;/font&gt;&lt;/div&gt;" style="text;html=1;align=center;verticalAlign=middle;whiteSpace=wrap;rounded=0;rotation=60;" vertex="1" parent="1">
          <mxGeometry x="270" y="645" width="60" height="30" as="geometry" />
        </mxCell>
        <mxCell id="I27MwGRCCeynss-tv7QH-42" value="&lt;font&gt;eth1&lt;/font&gt;" style="text;html=1;align=center;verticalAlign=middle;whiteSpace=wrap;rounded=0;rotation=-53;" vertex="1" parent="1">
          <mxGeometry x="748" y="640" width="60" height="30" as="geometry" />
        </mxCell>
        <mxCell id="I27MwGRCCeynss-tv7QH-44" value="&lt;font&gt;eth1&lt;/font&gt;" style="text;html=1;align=center;verticalAlign=middle;whiteSpace=wrap;rounded=0;rotation=60;" vertex="1" parent="1">
          <mxGeometry x="746" y="363.5" width="60" height="30" as="geometry" />
        </mxCell>
        <mxCell id="I27MwGRCCeynss-tv7QH-45" value="&lt;font&gt;eth1&lt;/font&gt;" style="text;html=1;align=center;verticalAlign=middle;whiteSpace=wrap;rounded=0;rotation=-50;" vertex="1" parent="1">
          <mxGeometry x="268" y="370" width="60" height="30" as="geometry" />
        </mxCell>
        <mxCell id="I27MwGRCCeynss-tv7QH-46" value="&lt;div&gt;&lt;font&gt;eth2&lt;/font&gt;&lt;/div&gt;&lt;div&gt;&lt;font&gt;&lt;br&gt;&lt;/font&gt;&lt;/div&gt;" style="text;html=1;align=center;verticalAlign=middle;whiteSpace=wrap;rounded=0;rotation=-50;" vertex="1" parent="1">
          <mxGeometry x="205" y="468" width="60" height="30" as="geometry" />
        </mxCell>
        <mxCell id="I27MwGRCCeynss-tv7QH-47" value="&lt;div&gt;&lt;font&gt;eth2&lt;/font&gt;&lt;/div&gt;" style="text;html=1;align=center;verticalAlign=middle;whiteSpace=wrap;rounded=0;rotation=90;" vertex="1" parent="1">
          <mxGeometry x="515" y="401" width="60" height="30" as="geometry" />
        </mxCell>
        <mxCell id="I27MwGRCCeynss-tv7QH-48" value="&lt;font&gt;eth4&lt;/font&gt;" style="text;html=1;align=center;verticalAlign=middle;whiteSpace=wrap;rounded=0;rotation=-60;" vertex="1" parent="1">
          <mxGeometry x="510" y="320" width="60" height="30" as="geometry" />
        </mxCell>
        <mxCell id="I27MwGRCCeynss-tv7QH-50" value="&lt;font&gt;eth4&lt;/font&gt;" style="text;html=1;align=center;verticalAlign=middle;whiteSpace=wrap;rounded=0;rotation=65;" vertex="1" parent="1">
          <mxGeometry x="700" y="324" width="60" height="30" as="geometry" />
        </mxCell>
        <mxCell id="I27MwGRCCeynss-tv7QH-51" value="&lt;h3&gt;&lt;font style=&quot;font-size: 24px; background-color: rgb(0, 0, 0);&quot; color=&quot;#ffffff&quot;&gt;r1&lt;/font&gt;&lt;/h3&gt;" style="text;html=1;align=center;verticalAlign=middle;whiteSpace=wrap;rounded=0;" vertex="1" parent="1">
          <mxGeometry x="294" y="347" width="110" height="63" as="geometry" />
        </mxCell>
        <mxCell id="I27MwGRCCeynss-tv7QH-54" value="&lt;h3&gt;&lt;font style=&quot;background-color: rgb(0, 0, 0); font-size: 19px;&quot; color=&quot;#ffffff&quot;&gt;hupf-h1&lt;/font&gt;&lt;/h3&gt;" style="text;html=1;align=center;verticalAlign=middle;whiteSpace=wrap;rounded=0;" vertex="1" parent="1">
          <mxGeometry x="1175" y="487.5" width="60" height="58" as="geometry" />
        </mxCell>
        <mxCell id="I27MwGRCCeynss-tv7QH-55" value="&lt;h3&gt;&lt;font style=&quot;font-size: 24px; background-color: rgb(0, 0, 0);&quot; color=&quot;#ffffff&quot;&gt;rg&lt;/font&gt;&lt;/h3&gt;" style="text;html=1;align=center;verticalAlign=middle;whiteSpace=wrap;rounded=0;" vertex="1" parent="1">
          <mxGeometry x="174" y="486.5" width="110" height="63" as="geometry" />
        </mxCell>
        <mxCell id="I27MwGRCCeynss-tv7QH-56" value="&lt;h3&gt;&lt;font style=&quot;font-size: 24px; background-color: rgb(0, 0, 0);&quot; color=&quot;#ffffff&quot;&gt;r4&lt;/font&gt;&lt;/h3&gt;" style="text;html=1;align=center;verticalAlign=middle;whiteSpace=wrap;rounded=0;" vertex="1" parent="1">
          <mxGeometry x="294" y="625" width="110" height="63" as="geometry" />
        </mxCell>
        <mxCell id="I27MwGRCCeynss-tv7QH-57" value="&lt;h3&gt;&lt;font style=&quot;font-size: 24px; background-color: rgb(0, 0, 0);&quot; color=&quot;#ffffff&quot;&gt;r2&lt;/font&gt;&lt;/h3&gt;" style="text;html=1;align=center;verticalAlign=middle;whiteSpace=wrap;rounded=0;" vertex="1" parent="1">
          <mxGeometry x="485" y="345" width="110" height="63" as="geometry" />
        </mxCell>
        <mxCell id="I27MwGRCCeynss-tv7QH-58" value="&lt;h3&gt;&lt;font style=&quot;font-size: 24px; background-color: rgb(0, 0, 0);&quot; color=&quot;#ffffff&quot;&gt;r3&lt;/font&gt;&lt;/h3&gt;" style="text;html=1;align=center;verticalAlign=middle;whiteSpace=wrap;rounded=0;" vertex="1" parent="1">
          <mxGeometry x="674" y="345" width="110" height="63" as="geometry" />
        </mxCell>
        <mxCell id="I27MwGRCCeynss-tv7QH-59" value="&lt;h3&gt;&lt;font style=&quot;font-size: 24px; background-color: rgb(0, 0, 0);&quot; color=&quot;#ffffff&quot;&gt;rc&lt;/font&gt;&lt;/h3&gt;" style="text;html=1;align=center;verticalAlign=middle;whiteSpace=wrap;rounded=0;" vertex="1" parent="1">
          <mxGeometry x="584" y="214" width="110" height="63" as="geometry" />
        </mxCell>
        <mxCell id="I27MwGRCCeynss-tv7QH-60" value="&lt;h3&gt;&lt;font style=&quot;font-size: 24px; background-color: rgb(0, 0, 0);&quot; color=&quot;#ffffff&quot;&gt;ru&lt;/font&gt;&lt;/h3&gt;" style="text;html=1;align=center;verticalAlign=middle;whiteSpace=wrap;rounded=0;" vertex="1" parent="1">
          <mxGeometry x="796" y="486.5" width="110" height="63" as="geometry" />
        </mxCell>
        <mxCell id="I27MwGRCCeynss-tv7QH-61" value="&lt;h3&gt;&lt;font style=&quot;font-size: 24px; background-color: rgb(0, 0, 0);&quot; color=&quot;#ffffff&quot;&gt;r5&lt;/font&gt;&lt;/h3&gt;" style="text;html=1;align=center;verticalAlign=middle;whiteSpace=wrap;rounded=0;" vertex="1" parent="1">
          <mxGeometry x="485" y="486.5" width="110" height="63" as="geometry" />
        </mxCell>
        <mxCell id="I27MwGRCCeynss-tv7QH-62" value="&lt;h3&gt;&lt;font style=&quot;font-size: 24px; background-color: rgb(0, 0, 0);&quot; color=&quot;#ffffff&quot;&gt;r6&lt;/font&gt;&lt;/h3&gt;" style="text;html=1;align=center;verticalAlign=middle;whiteSpace=wrap;rounded=0;" vertex="1" parent="1">
          <mxGeometry x="485" y="625" width="110" height="63" as="geometry" />
        </mxCell>
        <mxCell id="I27MwGRCCeynss-tv7QH-63" value="&lt;h3&gt;&lt;font style=&quot;font-size: 24px; background-color: rgb(0, 0, 0);&quot; color=&quot;#ffffff&quot;&gt;r7&lt;/font&gt;&lt;/h3&gt;" style="text;html=1;align=center;verticalAlign=middle;whiteSpace=wrap;rounded=0;" vertex="1" parent="1">
          <mxGeometry x="672" y="625" width="110" height="63" as="geometry" />
        </mxCell>
        <mxCell id="1I2WtKxNSLCedIirLF0q-2" value="" style="shape=mxgraph.cisco.computers_and_peripherals.terminal;sketch=0;html=1;pointerEvents=1;dashed=0;fillColor=#036897;strokeColor=#ffffff;strokeWidth=2;verticalLabelPosition=bottom;verticalAlign=top;align=center;outlineConnect=0;" vertex="1" parent="1">
          <mxGeometry x="-210" y="391.75" width="90" height="78" as="geometry" />
        </mxCell>
        <mxCell id="1I2WtKxNSLCedIirLF0q-9" value="" style="shape=mxgraph.cisco.routers.router;html=1;dashed=0;fillColor=#036897;strokeColor=#ffffff;strokeWidth=2;verticalLabelPosition=bottom;verticalAlign=top;rounded=0;shadow=0;comic=0;fontFamily=Verdana;fontSize=12;" vertex="1" parent="1">
          <mxGeometry x="6" y="492" width="78" height="53" as="geometry" />
        </mxCell>
        <mxCell id="1I2WtKxNSLCedIirLF0q-10" value="&lt;div&gt;&lt;font&gt;eth2&lt;/font&gt;&lt;/div&gt;" style="text;html=1;align=center;verticalAlign=middle;whiteSpace=wrap;rounded=0;" vertex="1" parent="1">
          <mxGeometry x="67" y="497" width="60" height="30" as="geometry" />
        </mxCell>
        <mxCell id="1I2WtKxNSLCedIirLF0q-11" style="edgeStyle=none;html=1;labelBackgroundColor=none;startFill=0;endArrow=none;endFill=0;strokeWidth=2;fontFamily=Verdana;fontSize=12;exitX=0;exitY=0.5;exitDx=0;exitDy=0;exitPerimeter=0;" edge="1" parent="1" source="1I2WtKxNSLCedIirLF0q-9" target="P0-c6NR_3_v5P01_Kzta-24">
          <mxGeometry relative="1" as="geometry">
            <mxPoint x="10" y="560" as="sourcePoint" />
            <mxPoint x="-70" y="519" as="targetPoint" />
          </mxGeometry>
        </mxCell>
        <mxCell id="1I2WtKxNSLCedIirLF0q-12" style="edgeStyle=none;html=1;labelBackgroundColor=none;startFill=0;endArrow=none;endFill=0;strokeWidth=2;fontFamily=Verdana;fontSize=12;" edge="1" parent="1">
          <mxGeometry relative="1" as="geometry">
            <mxPoint x="-90" y="430.25" as="sourcePoint" />
            <mxPoint x="-90" y="600.25" as="targetPoint" />
          </mxGeometry>
        </mxCell>
        <mxCell id="1I2WtKxNSLCedIirLF0q-13" style="edgeStyle=none;html=1;labelBackgroundColor=none;startFill=0;endArrow=none;endFill=0;strokeWidth=2;fontFamily=Verdana;fontSize=12;" edge="1" parent="1" target="1I2WtKxNSLCedIirLF0q-2">
          <mxGeometry relative="1" as="geometry">
            <mxPoint x="-90" y="430.25" as="sourcePoint" />
            <mxPoint x="-120" y="418.75" as="targetPoint" />
          </mxGeometry>
        </mxCell>
        <mxCell id="1I2WtKxNSLCedIirLF0q-14" value="" style="shape=mxgraph.cisco.computers_and_peripherals.terminal;sketch=0;html=1;pointerEvents=1;dashed=0;fillColor=#036897;strokeColor=#ffffff;strokeWidth=2;verticalLabelPosition=bottom;verticalAlign=top;align=center;outlineConnect=0;" vertex="1" parent="1">
          <mxGeometry x="-210" y="567.25" width="90" height="78" as="geometry" />
        </mxCell>
        <mxCell id="1I2WtKxNSLCedIirLF0q-16" style="edgeStyle=none;html=1;labelBackgroundColor=none;startFill=0;endArrow=none;endFill=0;strokeWidth=2;fontFamily=Verdana;fontSize=12;" edge="1" parent="1">
          <mxGeometry relative="1" as="geometry">
            <mxPoint x="-90" y="598.61" as="sourcePoint" />
            <mxPoint x="-120" y="598.61" as="targetPoint" />
          </mxGeometry>
        </mxCell>
        <mxCell id="1I2WtKxNSLCedIirLF0q-17" value="" style="shape=mxgraph.cisco.routers.router;html=1;dashed=0;fillColor=#036897;strokeColor=#ffffff;strokeWidth=2;verticalLabelPosition=bottom;verticalAlign=top;rounded=0;shadow=0;comic=0;fontFamily=Verdana;fontSize=12;" vertex="1" parent="1">
          <mxGeometry x="996" y="491.5" width="78" height="53" as="geometry" />
        </mxCell>
        <mxCell id="1I2WtKxNSLCedIirLF0q-19" value="&lt;h3&gt;&lt;font style=&quot;font-size: 24px; background-color: rgb(0, 0, 0);&quot; color=&quot;#ffffff&quot;&gt;rupf&lt;/font&gt;&lt;/h3&gt;" style="text;html=1;align=center;verticalAlign=middle;whiteSpace=wrap;rounded=0;" vertex="1" parent="1">
          <mxGeometry x="980" y="482" width="110" height="63" as="geometry" />
        </mxCell>
        <mxCell id="1I2WtKxNSLCedIirLF0q-20" style="edgeStyle=none;html=1;labelBackgroundColor=none;startFill=0;endArrow=none;endFill=0;strokeWidth=2;fontFamily=Verdana;fontSize=12;entryX=1;entryY=0.5;entryDx=0;entryDy=0;entryPerimeter=0;exitX=0;exitY=0.5;exitDx=0;exitDy=0;exitPerimeter=0;" edge="1" parent="1" source="1I2WtKxNSLCedIirLF0q-17">
          <mxGeometry relative="1" as="geometry">
            <mxPoint x="940" y="518" as="sourcePoint" />
            <mxPoint x="890" y="517.58" as="targetPoint" />
          </mxGeometry>
        </mxCell>
        <mxCell id="1I2WtKxNSLCedIirLF0q-22" style="edgeStyle=none;html=1;labelBackgroundColor=none;startFill=0;endArrow=none;endFill=0;strokeWidth=2;fontFamily=Verdana;fontSize=12;entryX=1;entryY=0.5;entryDx=0;entryDy=0;entryPerimeter=0;exitX=0.15;exitY=0.5;exitDx=0;exitDy=0;exitPerimeter=0;" edge="1" parent="1" source="P0-c6NR_3_v5P01_Kzta-27">
          <mxGeometry relative="1" as="geometry">
            <mxPoint x="1130" y="518" as="sourcePoint" />
            <mxPoint x="1074" y="517.7900000000001" as="targetPoint" />
          </mxGeometry>
        </mxCell>
        <mxCell id="1I2WtKxNSLCedIirLF0q-26" value="" style="shape=mxgraph.cisco.routers.router;html=1;dashed=0;fillColor=#036897;strokeColor=#ffffff;strokeWidth=2;verticalLabelPosition=bottom;verticalAlign=top;rounded=0;shadow=0;comic=0;fontFamily=Verdana;fontSize=12;" vertex="1" parent="1">
          <mxGeometry x="600" y="65" width="78" height="53" as="geometry" />
        </mxCell>
        <mxCell id="1I2WtKxNSLCedIirLF0q-27" style="edgeStyle=none;html=1;labelBackgroundColor=none;startFill=0;endArrow=none;endFill=0;strokeWidth=2;fontFamily=Verdana;fontSize=12;exitX=0.5;exitY=0;exitDx=0;exitDy=0;exitPerimeter=0;entryX=0.5;entryY=1;entryDx=0;entryDy=0;entryPerimeter=0;" edge="1" parent="1" source="1I2WtKxNSLCedIirLF0q-26" target="1I2WtKxNSLCedIirLF0q-35">
          <mxGeometry relative="1" as="geometry">
            <mxPoint x="640.72" y="65" as="sourcePoint" />
            <mxPoint x="640" y="-10" as="targetPoint" />
          </mxGeometry>
        </mxCell>
        <mxCell id="1I2WtKxNSLCedIirLF0q-28" style="edgeStyle=none;html=1;labelBackgroundColor=none;startFill=0;endArrow=none;endFill=0;strokeWidth=2;fontFamily=Verdana;fontSize=12;" edge="1" parent="1">
          <mxGeometry relative="1" as="geometry">
            <mxPoint x="730" y="-50" as="sourcePoint" />
            <mxPoint x="550.28" y="-50" as="targetPoint" />
          </mxGeometry>
        </mxCell>
        <mxCell id="1I2WtKxNSLCedIirLF0q-29" style="edgeStyle=none;html=1;labelBackgroundColor=none;startFill=0;endArrow=none;endFill=0;strokeWidth=2;fontFamily=Verdana;fontSize=12;entryX=0.5;entryY=1;entryDx=0;entryDy=0;entryPerimeter=0;" edge="1" parent="1" target="1I2WtKxNSLCedIirLF0q-36">
          <mxGeometry relative="1" as="geometry">
            <mxPoint x="730" y="-50" as="sourcePoint" />
            <mxPoint x="729.72" y="-53" as="targetPoint" />
          </mxGeometry>
        </mxCell>
        <mxCell id="1I2WtKxNSLCedIirLF0q-31" style="edgeStyle=none;html=1;labelBackgroundColor=none;startFill=0;endArrow=none;endFill=0;strokeWidth=2;fontFamily=Verdana;fontSize=12;" edge="1" parent="1">
          <mxGeometry relative="1" as="geometry">
            <mxPoint x="550" y="-50" as="sourcePoint" />
            <mxPoint x="550" y="-80" as="targetPoint" />
          </mxGeometry>
        </mxCell>
        <mxCell id="1I2WtKxNSLCedIirLF0q-30" value="" style="shape=mxgraph.cisco.computers_and_peripherals.terminal;sketch=0;html=1;pointerEvents=1;dashed=0;fillColor=#036897;strokeColor=#ffffff;strokeWidth=2;verticalLabelPosition=bottom;verticalAlign=top;align=center;outlineConnect=0;" vertex="1" parent="1">
          <mxGeometry x="510" y="-160" width="90" height="78" as="geometry" />
        </mxCell>
        <mxCell id="1I2WtKxNSLCedIirLF0q-35" value="" style="shape=mxgraph.cisco.computers_and_peripherals.terminal;sketch=0;html=1;pointerEvents=1;dashed=0;fillColor=#036897;strokeColor=#ffffff;strokeWidth=2;verticalLabelPosition=bottom;verticalAlign=top;align=center;outlineConnect=0;" vertex="1" parent="1">
          <mxGeometry x="594" y="-160" width="90" height="78" as="geometry" />
        </mxCell>
        <mxCell id="1I2WtKxNSLCedIirLF0q-36" value="" style="shape=mxgraph.cisco.computers_and_peripherals.terminal;sketch=0;html=1;pointerEvents=1;dashed=0;fillColor=#036897;strokeColor=#ffffff;strokeWidth=2;verticalLabelPosition=bottom;verticalAlign=top;align=center;outlineConnect=0;" vertex="1" parent="1">
          <mxGeometry x="685" y="-160" width="90" height="78" as="geometry" />
        </mxCell>
        <mxCell id="I27MwGRCCeynss-tv7QH-53" value="&lt;h3&gt;&lt;font style=&quot;background-color: rgb(0, 0, 0); font-size: 19px;&quot; color=&quot;#ffffff&quot;&gt;rcpd&lt;/font&gt;&lt;/h3&gt;" style="text;html=1;align=center;verticalAlign=middle;whiteSpace=wrap;rounded=0;" vertex="1" parent="1">
          <mxGeometry x="584" y="55" width="110" height="63" as="geometry" />
        </mxCell>
        <mxCell id="1I2WtKxNSLCedIirLF0q-37" value="&lt;h3&gt;&lt;font style=&quot;background-color: rgb(0, 0, 0); font-size: 19px;&quot; color=&quot;#ffffff&quot;&gt;hgnb-h1&lt;/font&gt;&lt;/h3&gt;" style="text;html=1;align=center;verticalAlign=middle;whiteSpace=wrap;rounded=0;" vertex="1" parent="1">
          <mxGeometry x="-200" y="396.25" width="70" height="58" as="geometry" />
        </mxCell>
        <mxCell id="1I2WtKxNSLCedIirLF0q-38" value="&lt;h3&gt;&lt;font style=&quot;background-color: rgb(0, 0, 0); font-size: 19px;&quot; color=&quot;#ffffff&quot;&gt;hgnb-h2&lt;/font&gt;&lt;/h3&gt;" style="text;html=1;align=center;verticalAlign=middle;whiteSpace=wrap;rounded=0;" vertex="1" parent="1">
          <mxGeometry x="-200" y="487.25" width="70" height="58" as="geometry" />
        </mxCell>
        <mxCell id="1I2WtKxNSLCedIirLF0q-39" value="&lt;h3&gt;&lt;font style=&quot;background-color: rgb(0, 0, 0); font-size: 19px;&quot; color=&quot;#ffffff&quot;&gt;hgnb-h3&lt;/font&gt;&lt;/h3&gt;" style="text;html=1;align=center;verticalAlign=middle;whiteSpace=wrap;rounded=0;" vertex="1" parent="1">
          <mxGeometry x="-200" y="572.25" width="70" height="58" as="geometry" />
        </mxCell>
        <mxCell id="1I2WtKxNSLCedIirLF0q-40" value="&lt;h3&gt;&lt;font style=&quot;background-color: rgb(0, 0, 0); font-size: 19px;&quot; color=&quot;#ffffff&quot;&gt;h&lt;/font&gt;&lt;font style=&quot;background-color: rgb(0, 0, 0); font-size: 19px;&quot; color=&quot;#ffffff&quot;&gt;cpd&lt;/font&gt;&lt;font style=&quot;background-color: rgb(0, 0, 0); font-size: 19px;&quot; color=&quot;#ffffff&quot;&gt;-h1&lt;/font&gt;&lt;/h3&gt;" style="text;html=1;align=center;verticalAlign=middle;whiteSpace=wrap;rounded=0;" vertex="1" parent="1">
          <mxGeometry x="520" y="-150" width="70" height="58" as="geometry" />
        </mxCell>
        <mxCell id="1I2WtKxNSLCedIirLF0q-41" value="&lt;h3&gt;&lt;font style=&quot;background-color: rgb(0, 0, 0); font-size: 19px;&quot; color=&quot;#ffffff&quot;&gt;h&lt;/font&gt;&lt;font style=&quot;background-color: rgb(0, 0, 0); font-size: 19px;&quot; color=&quot;#ffffff&quot;&gt;cpd&lt;/font&gt;&lt;font style=&quot;background-color: rgb(0, 0, 0); font-size: 19px;&quot; color=&quot;#ffffff&quot;&gt;-h2&lt;/font&gt;&lt;/h3&gt;" style="text;html=1;align=center;verticalAlign=middle;whiteSpace=wrap;rounded=0;" vertex="1" parent="1">
          <mxGeometry x="608" y="-150" width="70" height="58" as="geometry" />
        </mxCell>
        <mxCell id="1I2WtKxNSLCedIirLF0q-42" value="&lt;h3&gt;&lt;font style=&quot;background-color: rgb(0, 0, 0); font-size: 19px;&quot; color=&quot;#ffffff&quot;&gt;hcpd-h3&lt;/font&gt;&lt;/h3&gt;" style="text;html=1;align=center;verticalAlign=middle;whiteSpace=wrap;rounded=0;" vertex="1" parent="1">
          <mxGeometry x="694" y="-150" width="70" height="58" as="geometry" />
        </mxCell>
        <mxCell id="1I2WtKxNSLCedIirLF0q-43" value="&lt;h3&gt;&lt;font style=&quot;background-color: rgb(0, 0, 0); font-size: 19px;&quot; color=&quot;#ffffff&quot;&gt;rgnb&lt;/font&gt;&lt;/h3&gt;" style="text;html=1;align=center;verticalAlign=middle;whiteSpace=wrap;rounded=0;" vertex="1" parent="1">
          <mxGeometry x="-10" y="486.5" width="110" height="63" as="geometry" />
        </mxCell>
        <mxCell id="1I2WtKxNSLCedIirLF0q-44" value="&lt;font&gt;eth2&lt;/font&gt;" style="text;html=1;align=center;verticalAlign=middle;whiteSpace=wrap;rounded=0;" vertex="1" parent="1">
          <mxGeometry x="952" y="499" width="60" height="24" as="geometry" />
        </mxCell>
        <mxCell id="1I2WtKxNSLCedIirLF0q-45" value="&lt;font&gt;eth3&lt;/font&gt;" style="text;html=1;align=center;verticalAlign=middle;whiteSpace=wrap;rounded=0;" vertex="1" parent="1">
          <mxGeometry x="560" y="635" width="60" height="30" as="geometry" />
        </mxCell>
        <mxCell id="1I2WtKxNSLCedIirLF0q-46" value="&lt;font&gt;eth1&lt;/font&gt;" style="text;html=1;align=center;verticalAlign=middle;whiteSpace=wrap;rounded=0;rotation=90;" vertex="1" parent="1">
          <mxGeometry x="615" y="40" width="60" height="30" as="geometry" />
        </mxCell>
        <mxCell id="k4-aQ5Q9utBKEgYW4s5q-1" value="&lt;font style=&quot;font-size: 15px;&quot;&gt;&lt;span style=&quot;background-color: rgb(179, 179, 179);&quot;&gt;&lt;span style=&quot;color: rgb(255, 255, 255);&quot;&gt;fcf0:0:1:11::/127&lt;/span&gt;&lt;/span&gt;&lt;/font&gt;" style="text;html=1;align=center;verticalAlign=middle;whiteSpace=wrap;rounded=0;rotation=-55;" vertex="1" parent="1">
          <mxGeometry x="250" y="430" width="60" height="30" as="geometry" />
        </mxCell>
        <mxCell id="k4-aQ5Q9utBKEgYW4s5q-3" value="&lt;font style=&quot;font-size: 15px;&quot;&gt;&lt;span style=&quot;background-color: rgb(179, 179, 179);&quot;&gt;&lt;span style=&quot;color: rgb(255, 255, 255);&quot;&gt;0&lt;/span&gt;&lt;/span&gt;&lt;/font&gt;" style="text;html=1;align=center;verticalAlign=middle;whiteSpace=wrap;rounded=0;rotation=-55;" vertex="1" parent="1">
          <mxGeometry x="274" y="380" width="18" height="30" as="geometry" />
        </mxCell>
        <mxCell id="k4-aQ5Q9utBKEgYW4s5q-4" value="&lt;font style=&quot;font-size: 15px;&quot;&gt;&lt;span style=&quot;background-color: rgb(179, 179, 179);&quot;&gt;&lt;span style=&quot;color: rgb(255, 255, 255);&quot;&gt;1&lt;/span&gt;&lt;/span&gt;&lt;/font&gt;" style="text;html=1;align=center;verticalAlign=middle;whiteSpace=wrap;rounded=0;rotation=-55;" vertex="1" parent="1">
          <mxGeometry x="233" y="439.5" width="16" height="30" as="geometry" />
        </mxCell>
        <mxCell id="k4-aQ5Q9utBKEgYW4s5q-5" value="&lt;font style=&quot;font-size: 15px;&quot;&gt;&lt;span style=&quot;background-color: rgb(179, 179, 179);&quot;&gt;&lt;span style=&quot;color: rgb(255, 255, 255);&quot;&gt;fcf0:0:1:2::/127&lt;/span&gt;&lt;/span&gt;&lt;/font&gt;" style="text;html=1;align=center;verticalAlign=middle;whiteSpace=wrap;rounded=0;rotation=0;" vertex="1" parent="1">
          <mxGeometry x="414" y="373" width="60" height="30" as="geometry" />
        </mxCell>
        <mxCell id="k4-aQ5Q9utBKEgYW4s5q-6" value="&lt;font style=&quot;font-size: 15px;&quot;&gt;&lt;span style=&quot;background-color: rgb(179, 179, 179);&quot;&gt;&lt;span style=&quot;color: rgb(255, 255, 255);&quot;&gt;0&lt;/span&gt;&lt;/span&gt;&lt;/font&gt;" style="text;html=1;align=center;verticalAlign=middle;whiteSpace=wrap;rounded=0;rotation=0;" vertex="1" parent="1">
          <mxGeometry x="409" y="349" width="20" height="30" as="geometry" />
        </mxCell>
        <mxCell id="k4-aQ5Q9utBKEgYW4s5q-7" value="&lt;font style=&quot;font-size: 15px;&quot;&gt;&lt;span style=&quot;background-color: rgb(179, 179, 179);&quot;&gt;&lt;span style=&quot;color: rgb(255, 255, 255);&quot;&gt;1&lt;/span&gt;&lt;/span&gt;&lt;/font&gt;" style="text;html=1;align=center;verticalAlign=middle;whiteSpace=wrap;rounded=0;rotation=0;" vertex="1" parent="1">
          <mxGeometry x="461" y="350" width="20" height="30" as="geometry" />
        </mxCell>
        <mxCell id="k4-aQ5Q9utBKEgYW4s5q-8" value="&lt;div&gt;&lt;font style=&quot;font-size: 15px;&quot;&gt;&lt;span style=&quot;background-color: rgb(179, 179, 179);&quot;&gt;&lt;span style=&quot;color: rgb(255, 255, 255);&quot;&gt;fcf0:0:2&lt;/span&gt;&lt;/span&gt;&lt;span style=&quot;background-color: rgb(179, 179, 179);&quot;&gt;&lt;span style=&quot;color: rgb(255, 255, 255);&quot;&gt;:3::/127&lt;/span&gt;&lt;/span&gt;&lt;/font&gt;&lt;/div&gt;" style="text;html=1;align=center;verticalAlign=middle;whiteSpace=wrap;rounded=0;rotation=0;" vertex="1" parent="1">
          <mxGeometry x="604" y="376" width="60" height="30" as="geometry" />
        </mxCell>
        <mxCell id="k4-aQ5Q9utBKEgYW4s5q-9" value="&lt;font style=&quot;font-size: 15px;&quot;&gt;&lt;span style=&quot;background-color: rgb(179, 179, 179);&quot;&gt;&lt;span style=&quot;color: rgb(255, 255, 255);&quot;&gt;0&lt;/span&gt;&lt;/span&gt;&lt;/font&gt;" style="text;html=1;align=center;verticalAlign=middle;whiteSpace=wrap;rounded=0;rotation=0;" vertex="1" parent="1">
          <mxGeometry x="598" y="349" width="20" height="30" as="geometry" />
        </mxCell>
        <mxCell id="k4-aQ5Q9utBKEgYW4s5q-10" value="&lt;font style=&quot;font-size: 15px;&quot;&gt;&lt;span style=&quot;background-color: rgb(179, 179, 179);&quot;&gt;&lt;span style=&quot;color: rgb(255, 255, 255);&quot;&gt;1&lt;/span&gt;&lt;/span&gt;&lt;/font&gt;" style="text;html=1;align=center;verticalAlign=middle;whiteSpace=wrap;rounded=0;rotation=0;" vertex="1" parent="1">
          <mxGeometry x="651" y="350" width="20" height="30" as="geometry" />
        </mxCell>
        <mxCell id="k4-aQ5Q9utBKEgYW4s5q-11" value="&lt;font style=&quot;font-size: 15px;&quot;&gt;&lt;span style=&quot;background-color: rgb(179, 179, 179);&quot;&gt;&lt;span style=&quot;color: rgb(255, 255, 255);&quot;&gt;fcf0:0:4:11::/127&lt;/span&gt;&lt;/span&gt;&lt;/font&gt;" style="text;html=1;align=center;verticalAlign=middle;whiteSpace=wrap;rounded=0;rotation=55;" vertex="1" parent="1">
          <mxGeometry x="249" y="578" width="60" height="30" as="geometry" />
        </mxCell>
        <mxCell id="k4-aQ5Q9utBKEgYW4s5q-12" value="&lt;font style=&quot;font-size: 15px;&quot;&gt;&lt;span style=&quot;background-color: rgb(179, 179, 179);&quot;&gt;&lt;span style=&quot;color: rgb(255, 255, 255);&quot;&gt;1&lt;/span&gt;&lt;/span&gt;&lt;/font&gt;" style="text;html=1;align=center;verticalAlign=middle;whiteSpace=wrap;rounded=0;rotation=50;" vertex="1" parent="1">
          <mxGeometry x="227" y="557" width="16" height="30" as="geometry" />
        </mxCell>
        <mxCell id="k4-aQ5Q9utBKEgYW4s5q-13" value="&lt;font style=&quot;font-size: 15px;&quot;&gt;&lt;span style=&quot;background-color: rgb(179, 179, 179);&quot;&gt;&lt;span style=&quot;color: rgb(255, 255, 255);&quot;&gt;0&lt;/span&gt;&lt;/span&gt;&lt;/font&gt;" style="text;html=1;align=center;verticalAlign=middle;whiteSpace=wrap;rounded=0;rotation=55;" vertex="1" parent="1">
          <mxGeometry x="279" y="632" width="18" height="30" as="geometry" />
        </mxCell>
        <mxCell id="k4-aQ5Q9utBKEgYW4s5q-15" value="&lt;font style=&quot;font-size: 15px;&quot;&gt;&lt;span style=&quot;background-color: rgb(179, 179, 179);&quot;&gt;&lt;span style=&quot;color: rgb(255, 255, 255);&quot;&gt;fcf0:0:4:6::/127&lt;/span&gt;&lt;/span&gt;&lt;/font&gt;" style="text;html=1;align=center;verticalAlign=middle;whiteSpace=wrap;rounded=0;rotation=0;" vertex="1" parent="1">
          <mxGeometry x="414" y="653" width="60" height="30" as="geometry" />
        </mxCell>
        <mxCell id="k4-aQ5Q9utBKEgYW4s5q-16" value="&lt;font style=&quot;font-size: 15px;&quot;&gt;&lt;span style=&quot;background-color: rgb(179, 179, 179);&quot;&gt;&lt;span style=&quot;color: rgb(255, 255, 255);&quot;&gt;0&lt;/span&gt;&lt;/span&gt;&lt;/font&gt;" style="text;html=1;align=center;verticalAlign=middle;whiteSpace=wrap;rounded=0;rotation=0;" vertex="1" parent="1">
          <mxGeometry x="409" y="630" width="20" height="30" as="geometry" />
        </mxCell>
        <mxCell id="k4-aQ5Q9utBKEgYW4s5q-17" value="&lt;font style=&quot;font-size: 15px;&quot;&gt;&lt;span style=&quot;background-color: rgb(179, 179, 179);&quot;&gt;&lt;span style=&quot;color: rgb(255, 255, 255);&quot;&gt;1&lt;/span&gt;&lt;/span&gt;&lt;/font&gt;" style="text;html=1;align=center;verticalAlign=middle;whiteSpace=wrap;rounded=0;rotation=0;" vertex="1" parent="1">
          <mxGeometry x="462" y="630" width="20" height="30" as="geometry" />
        </mxCell>
        <mxCell id="k4-aQ5Q9utBKEgYW4s5q-20" value="&lt;div&gt;&lt;font style=&quot;font-size: 15px;&quot;&gt;&lt;span style=&quot;background-color: rgb(179, 179, 179);&quot;&gt;&lt;span style=&quot;color: rgb(255, 255, 255);&quot;&gt;fcf0:0:6&lt;/span&gt;&lt;/span&gt;&lt;span style=&quot;background-color: rgb(179, 179, 179);&quot;&gt;&lt;span style=&quot;color: rgb(255, 255, 255);&quot;&gt;:7::/127&lt;/span&gt;&lt;/span&gt;&lt;/font&gt;&lt;/div&gt;" style="text;html=1;align=center;verticalAlign=middle;whiteSpace=wrap;rounded=0;rotation=0;" vertex="1" parent="1">
          <mxGeometry x="608" y="653" width="60" height="30" as="geometry" />
        </mxCell>
        <mxCell id="k4-aQ5Q9utBKEgYW4s5q-21" value="&lt;font style=&quot;font-size: 15px;&quot;&gt;&lt;span style=&quot;background-color: rgb(179, 179, 179);&quot;&gt;&lt;span style=&quot;color: rgb(255, 255, 255);&quot;&gt;0&lt;/span&gt;&lt;/span&gt;&lt;/font&gt;" style="text;html=1;align=center;verticalAlign=middle;whiteSpace=wrap;rounded=0;rotation=0;" vertex="1" parent="1">
          <mxGeometry x="597" y="630" width="20" height="30" as="geometry" />
        </mxCell>
        <mxCell id="k4-aQ5Q9utBKEgYW4s5q-22" value="&lt;font style=&quot;font-size: 15px;&quot;&gt;&lt;span style=&quot;background-color: rgb(179, 179, 179);&quot;&gt;&lt;span style=&quot;color: rgb(255, 255, 255);&quot;&gt;1&lt;/span&gt;&lt;/span&gt;&lt;/font&gt;" style="text;html=1;align=center;verticalAlign=middle;whiteSpace=wrap;rounded=0;rotation=0;" vertex="1" parent="1">
          <mxGeometry x="651" y="630" width="20" height="30" as="geometry" />
        </mxCell>
        <mxCell id="k4-aQ5Q9utBKEgYW4s5q-23" value="&lt;div&gt;&lt;font style=&quot;font-size: 15px;&quot;&gt;&lt;span style=&quot;background-color: rgb(179, 179, 179);&quot;&gt;&lt;span style=&quot;color: rgb(255, 255, 255);&quot;&gt;fcf0:0:1&lt;/span&gt;&lt;/span&gt;&lt;span style=&quot;background-color: rgb(179, 179, 179);&quot;&gt;&lt;span style=&quot;color: rgb(255, 255, 255);&quot;&gt;:4::/127&lt;/span&gt;&lt;/span&gt;&lt;/font&gt;&lt;/div&gt;" style="text;html=1;align=center;verticalAlign=middle;whiteSpace=wrap;rounded=0;rotation=90;" vertex="1" parent="1">
          <mxGeometry x="308" y="486.5" width="60" height="30" as="geometry" />
        </mxCell>
        <mxCell id="k4-aQ5Q9utBKEgYW4s5q-24" value="&lt;font style=&quot;font-size: 15px;&quot;&gt;&lt;span style=&quot;background-color: rgb(179, 179, 179);&quot;&gt;&lt;span style=&quot;color: rgb(255, 255, 255);&quot;&gt;0&lt;/span&gt;&lt;/span&gt;&lt;/font&gt;" style="text;html=1;align=center;verticalAlign=middle;whiteSpace=wrap;rounded=0;rotation=90;" vertex="1" parent="1">
          <mxGeometry x="350" y="419" width="20" height="30" as="geometry" />
        </mxCell>
        <mxCell id="k4-aQ5Q9utBKEgYW4s5q-25" value="&lt;font style=&quot;font-size: 15px;&quot;&gt;&lt;span style=&quot;background-color: rgb(179, 179, 179);&quot;&gt;&lt;span style=&quot;color: rgb(255, 255, 255);&quot;&gt;1&lt;/span&gt;&lt;/span&gt;&lt;/font&gt;" style="text;html=1;align=center;verticalAlign=middle;whiteSpace=wrap;rounded=0;rotation=90;" vertex="1" parent="1">
          <mxGeometry x="350" y="584" width="20" height="30" as="geometry" />
        </mxCell>
        <mxCell id="k4-aQ5Q9utBKEgYW4s5q-26" value="&lt;div&gt;&lt;font style=&quot;font-size: 15px;&quot;&gt;&lt;span style=&quot;background-color: rgb(179, 179, 179);&quot;&gt;&lt;span style=&quot;color: rgb(255, 255, 255);&quot;&gt;fcf0:0:2&lt;/span&gt;&lt;/span&gt;&lt;span style=&quot;background-color: rgb(179, 179, 179);&quot;&gt;&lt;span style=&quot;color: rgb(255, 255, 255);&quot;&gt;:5::/127&lt;/span&gt;&lt;/span&gt;&lt;/font&gt;&lt;/div&gt;" style="text;html=1;align=center;verticalAlign=middle;whiteSpace=wrap;rounded=0;rotation=90;" vertex="1" parent="1">
          <mxGeometry x="500" y="440" width="50" height="20" as="geometry" />
        </mxCell>
        <mxCell id="k4-aQ5Q9utBKEgYW4s5q-27" value="&lt;font style=&quot;font-size: 15px;&quot;&gt;&lt;span style=&quot;background-color: rgb(179, 179, 179);&quot;&gt;&lt;span style=&quot;color: rgb(255, 255, 255);&quot;&gt;0&lt;/span&gt;&lt;/span&gt;&lt;/font&gt;" style="text;html=1;align=center;verticalAlign=middle;whiteSpace=wrap;rounded=0;rotation=90;" vertex="1" parent="1">
          <mxGeometry x="540" y="419" width="20" height="30" as="geometry" />
        </mxCell>
        <mxCell id="k4-aQ5Q9utBKEgYW4s5q-28" value="&lt;font style=&quot;font-size: 15px;&quot;&gt;&lt;span style=&quot;background-color: rgb(179, 179, 179);&quot;&gt;&lt;span style=&quot;color: rgb(255, 255, 255);&quot;&gt;1&lt;/span&gt;&lt;/span&gt;&lt;/font&gt;" style="text;html=1;align=center;verticalAlign=middle;whiteSpace=wrap;rounded=0;rotation=90;" vertex="1" parent="1">
          <mxGeometry x="541" y="449.5" width="20" height="30" as="geometry" />
        </mxCell>
        <mxCell id="k4-aQ5Q9utBKEgYW4s5q-30" value="&lt;div&gt;&lt;font style=&quot;font-size: 15px;&quot;&gt;&lt;span style=&quot;background-color: rgb(179, 179, 179);&quot;&gt;&lt;span style=&quot;color: rgb(255, 255, 255);&quot;&gt;fcf0:0&lt;/span&gt;&lt;/span&gt;&lt;span style=&quot;background-color: rgb(179, 179, 179);&quot;&gt;&lt;span style=&quot;color: rgb(255, 255, 255);&quot;&gt;:5:6::/127&lt;/span&gt;&lt;/span&gt;&lt;/font&gt;&lt;/div&gt;" style="text;html=1;align=center;verticalAlign=middle;whiteSpace=wrap;rounded=0;rotation=90;" vertex="1" parent="1">
          <mxGeometry x="500" y="582" width="50" height="20" as="geometry" />
        </mxCell>
        <mxCell id="k4-aQ5Q9utBKEgYW4s5q-31" value="&lt;font style=&quot;font-size: 15px;&quot;&gt;&lt;span style=&quot;background-color: rgb(179, 179, 179);&quot;&gt;&lt;span style=&quot;color: rgb(255, 255, 255);&quot;&gt;0&lt;/span&gt;&lt;/span&gt;&lt;/font&gt;" style="text;html=1;align=center;verticalAlign=middle;whiteSpace=wrap;rounded=0;rotation=90;" vertex="1" parent="1">
          <mxGeometry x="541" y="559.5" width="20" height="30" as="geometry" />
        </mxCell>
        <mxCell id="k4-aQ5Q9utBKEgYW4s5q-32" value="&lt;font style=&quot;font-size: 15px;&quot;&gt;&lt;span style=&quot;background-color: rgb(179, 179, 179);&quot;&gt;&lt;span style=&quot;color: rgb(255, 255, 255);&quot;&gt;1&lt;/span&gt;&lt;/span&gt;&lt;/font&gt;" style="text;html=1;align=center;verticalAlign=middle;whiteSpace=wrap;rounded=0;rotation=90;" vertex="1" parent="1">
          <mxGeometry x="540" y="584" width="20" height="30" as="geometry" />
        </mxCell>
        <mxCell id="k4-aQ5Q9utBKEgYW4s5q-33" value="&lt;div&gt;&lt;font style=&quot;font-size: 15px;&quot;&gt;&lt;span style=&quot;background-color: rgb(179, 179, 179);&quot;&gt;&lt;span style=&quot;color: rgb(255, 255, 255);&quot;&gt;fcf0:0:3&lt;/span&gt;&lt;/span&gt;&lt;span style=&quot;background-color: rgb(179, 179, 179);&quot;&gt;&lt;span style=&quot;color: rgb(255, 255, 255);&quot;&gt;:7::/127&lt;/span&gt;&lt;/span&gt;&lt;/font&gt;&lt;/div&gt;" style="text;html=1;align=center;verticalAlign=middle;whiteSpace=wrap;rounded=0;rotation=90;" vertex="1" parent="1">
          <mxGeometry x="684" y="495" width="60" height="30" as="geometry" />
        </mxCell>
        <mxCell id="k4-aQ5Q9utBKEgYW4s5q-34" value="&lt;font style=&quot;font-size: 15px;&quot;&gt;&lt;span style=&quot;background-color: rgb(179, 179, 179);&quot;&gt;&lt;span style=&quot;color: rgb(255, 255, 255);&quot;&gt;0&lt;/span&gt;&lt;/span&gt;&lt;/font&gt;" style="text;html=1;align=center;verticalAlign=middle;whiteSpace=wrap;rounded=0;rotation=90;" vertex="1" parent="1">
          <mxGeometry x="732" y="419.5" width="20" height="30" as="geometry" />
        </mxCell>
        <mxCell id="k4-aQ5Q9utBKEgYW4s5q-35" value="&lt;font style=&quot;font-size: 15px;&quot;&gt;&lt;span style=&quot;background-color: rgb(179, 179, 179);&quot;&gt;&lt;span style=&quot;color: rgb(255, 255, 255);&quot;&gt;1&lt;/span&gt;&lt;/span&gt;&lt;/font&gt;" style="text;html=1;align=center;verticalAlign=middle;whiteSpace=wrap;rounded=0;rotation=90;" vertex="1" parent="1">
          <mxGeometry x="730" y="585" width="20" height="30" as="geometry" />
        </mxCell>
        <mxCell id="k4-aQ5Q9utBKEgYW4s5q-37" value="&lt;div&gt;&lt;font style=&quot;font-size: 15px;&quot;&gt;&lt;span style=&quot;background-color: rgb(179, 179, 179);&quot;&gt;&lt;span style=&quot;color: rgb(255, 255, 255);&quot;&gt;fcf0:0&lt;/span&gt;&lt;/span&gt;&lt;span style=&quot;background-color: rgb(179, 179, 179);&quot;&gt;&lt;span style=&quot;color: rgb(255, 255, 255);&quot;&gt;:7:13::/127&lt;/span&gt;&lt;/span&gt;&lt;/font&gt;&lt;/div&gt;" style="text;html=1;align=center;verticalAlign=middle;whiteSpace=wrap;rounded=0;rotation=-53;" vertex="1" parent="1">
          <mxGeometry x="769" y="577" width="60" height="30" as="geometry" />
        </mxCell>
        <mxCell id="k4-aQ5Q9utBKEgYW4s5q-38" value="&lt;font style=&quot;font-size: 15px;&quot;&gt;&lt;span style=&quot;background-color: rgb(179, 179, 179);&quot;&gt;&lt;span style=&quot;color: rgb(255, 255, 255);&quot;&gt;0&lt;/span&gt;&lt;/span&gt;&lt;/font&gt;" style="text;html=1;align=center;verticalAlign=middle;whiteSpace=wrap;rounded=0;rotation=-53;" vertex="1" parent="1">
          <mxGeometry x="780" y="629" width="20" height="30" as="geometry" />
        </mxCell>
        <mxCell id="k4-aQ5Q9utBKEgYW4s5q-40" value="&lt;font style=&quot;font-size: 15px;&quot;&gt;&lt;span style=&quot;background-color: rgb(179, 179, 179);&quot;&gt;&lt;span style=&quot;color: rgb(255, 255, 255);&quot;&gt;1&lt;/span&gt;&lt;/span&gt;&lt;/font&gt;" style="text;html=1;align=center;verticalAlign=middle;whiteSpace=wrap;rounded=0;rotation=-53;" vertex="1" parent="1">
          <mxGeometry x="836" y="557" width="20" height="30" as="geometry" />
        </mxCell>
        <mxCell id="k4-aQ5Q9utBKEgYW4s5q-41" value="&lt;div&gt;&lt;font style=&quot;font-size: 15px;&quot;&gt;&lt;span style=&quot;background-color: rgb(179, 179, 179);&quot;&gt;&lt;span style=&quot;color: rgb(255, 255, 255);&quot;&gt;fcf0:0&lt;/span&gt;&lt;/span&gt;&lt;span style=&quot;background-color: rgb(179, 179, 179);&quot;&gt;&lt;span style=&quot;color: rgb(255, 255, 255);&quot;&gt;:3:13::/127&lt;/span&gt;&lt;/span&gt;&lt;/font&gt;&lt;/div&gt;" style="text;html=1;align=center;verticalAlign=middle;whiteSpace=wrap;rounded=0;rotation=55;" vertex="1" parent="1">
          <mxGeometry x="769" y="425" width="60" height="30" as="geometry" />
        </mxCell>
        <mxCell id="k4-aQ5Q9utBKEgYW4s5q-42" value="&lt;font style=&quot;font-size: 15px;&quot;&gt;&lt;span style=&quot;background-color: rgb(179, 179, 179);&quot;&gt;&lt;span style=&quot;color: rgb(255, 255, 255);&quot;&gt;0&lt;/span&gt;&lt;/span&gt;&lt;/font&gt;" style="text;html=1;align=center;verticalAlign=middle;whiteSpace=wrap;rounded=0;rotation=55;" vertex="1" parent="1">
          <mxGeometry x="782" y="373" width="20" height="30" as="geometry" />
        </mxCell>
        <mxCell id="k4-aQ5Q9utBKEgYW4s5q-43" value="&lt;font style=&quot;font-size: 15px;&quot;&gt;&lt;span style=&quot;background-color: rgb(179, 179, 179);&quot;&gt;&lt;span style=&quot;color: rgb(255, 255, 255);&quot;&gt;1&lt;/span&gt;&lt;/span&gt;&lt;/font&gt;" style="text;html=1;align=center;verticalAlign=middle;whiteSpace=wrap;rounded=0;rotation=55;" vertex="1" parent="1">
          <mxGeometry x="835" y="447" width="20" height="30" as="geometry" />
        </mxCell>
        <mxCell id="k4-aQ5Q9utBKEgYW4s5q-44" value="&lt;div&gt;&lt;font style=&quot;font-size: 15px;&quot;&gt;&lt;span style=&quot;background-color: rgb(179, 179, 179);&quot;&gt;&lt;span style=&quot;color: rgb(255, 255, 255);&quot;&gt;fd00:0&lt;/span&gt;&lt;/span&gt;&lt;span style=&quot;background-color: rgb(179, 179, 179);&quot;&gt;&lt;span style=&quot;color: rgb(255, 255, 255);&quot;&gt;:4::/127&lt;/span&gt;&lt;/span&gt;&lt;/font&gt;&lt;/div&gt;" style="text;html=1;align=center;verticalAlign=middle;whiteSpace=wrap;rounded=0;rotation=0;" vertex="1" parent="1">
          <mxGeometry x="913" y="513" width="60" height="30" as="geometry" />
        </mxCell>
        <mxCell id="k4-aQ5Q9utBKEgYW4s5q-45" value="&lt;font style=&quot;font-size: 15px;&quot;&gt;&lt;span style=&quot;background-color: rgb(179, 179, 179);&quot;&gt;&lt;span style=&quot;color: rgb(255, 255, 255);&quot;&gt;0&lt;/span&gt;&lt;/span&gt;&lt;/font&gt;" style="text;html=1;align=center;verticalAlign=middle;whiteSpace=wrap;rounded=0;rotation=0;" vertex="1" parent="1">
          <mxGeometry x="909" y="491" width="20" height="30" as="geometry" />
        </mxCell>
        <mxCell id="k4-aQ5Q9utBKEgYW4s5q-46" value="&lt;font style=&quot;font-size: 15px;&quot;&gt;&lt;span style=&quot;background-color: rgb(179, 179, 179);&quot;&gt;&lt;span style=&quot;color: rgb(255, 255, 255);&quot;&gt;1&lt;/span&gt;&lt;/span&gt;&lt;/font&gt;" style="text;html=1;align=center;verticalAlign=middle;whiteSpace=wrap;rounded=0;rotation=0;" vertex="1" parent="1">
          <mxGeometry x="954" y="491.5" width="20" height="30" as="geometry" />
        </mxCell>
        <mxCell id="k4-aQ5Q9utBKEgYW4s5q-47" value="&lt;div&gt;&lt;font style=&quot;font-size: 15px;&quot;&gt;&lt;span style=&quot;background-color: rgb(179, 179, 179);&quot;&gt;&lt;span style=&quot;color: rgb(255, 255, 255);&quot;&gt;fd00:0&lt;/span&gt;&lt;/span&gt;&lt;span style=&quot;background-color: rgb(179, 179, 179);&quot;&gt;&lt;span style=&quot;color: rgb(255, 255, 255);&quot;&gt;:1::/127&lt;/span&gt;&lt;/span&gt;&lt;/font&gt;&lt;/div&gt;" style="text;html=1;align=center;verticalAlign=middle;whiteSpace=wrap;rounded=0;rotation=0;" vertex="1" parent="1">
          <mxGeometry x="1095" y="513" width="60" height="30" as="geometry" />
        </mxCell>
        <mxCell id="k4-aQ5Q9utBKEgYW4s5q-48" value="&lt;font style=&quot;font-size: 15px;&quot;&gt;&lt;span style=&quot;background-color: rgb(179, 179, 179);&quot;&gt;&lt;span style=&quot;color: rgb(255, 255, 255);&quot;&gt;0&lt;/span&gt;&lt;/span&gt;&lt;/font&gt;" style="text;html=1;align=center;verticalAlign=middle;whiteSpace=wrap;rounded=0;rotation=0;" vertex="1" parent="1">
          <mxGeometry x="1095" y="492" width="20" height="30" as="geometry" />
        </mxCell>
        <mxCell id="k4-aQ5Q9utBKEgYW4s5q-49" value="&lt;font style=&quot;font-size: 15px;&quot;&gt;&lt;span style=&quot;background-color: rgb(179, 179, 179);&quot;&gt;&lt;span style=&quot;color: rgb(255, 255, 255);&quot;&gt;1&lt;/span&gt;&lt;/span&gt;&lt;/font&gt;" style="text;html=1;align=center;verticalAlign=middle;whiteSpace=wrap;rounded=0;rotation=0;" vertex="1" parent="1">
          <mxGeometry x="1155" y="492" width="20" height="30" as="geometry" />
        </mxCell>
        <mxCell id="k4-aQ5Q9utBKEgYW4s5q-50" value="&lt;div&gt;&lt;font style=&quot;font-size: 15px;&quot;&gt;&lt;span style=&quot;background-color: rgb(179, 179, 179);&quot;&gt;&lt;span style=&quot;color: rgb(255, 255, 255);&quot;&gt;fcf0:0:2&lt;/span&gt;&lt;/span&gt;&lt;span style=&quot;background-color: rgb(179, 179, 179);&quot;&gt;&lt;span style=&quot;color: rgb(255, 255, 255);&quot;&gt;:12::/127&lt;/span&gt;&lt;/span&gt;&lt;/font&gt;&lt;/div&gt;" style="text;html=1;align=center;verticalAlign=middle;whiteSpace=wrap;rounded=0;rotation=-60;" vertex="1" parent="1">
          <mxGeometry x="550" y="290" width="60" height="30" as="geometry" />
        </mxCell>
        <mxCell id="k4-aQ5Q9utBKEgYW4s5q-51" value="&lt;font style=&quot;font-size: 15px;&quot;&gt;&lt;span style=&quot;background-color: rgb(179, 179, 179);&quot;&gt;&lt;span style=&quot;color: rgb(255, 255, 255);&quot;&gt;0&lt;/span&gt;&lt;/span&gt;&lt;/font&gt;" style="text;html=1;align=center;verticalAlign=middle;whiteSpace=wrap;rounded=0;rotation=-60;" vertex="1" parent="1">
          <mxGeometry x="535" y="303" width="20" height="30" as="geometry" />
        </mxCell>
        <mxCell id="k4-aQ5Q9utBKEgYW4s5q-52" value="&lt;font style=&quot;font-size: 15px;&quot;&gt;&lt;span style=&quot;background-color: rgb(179, 179, 179);&quot;&gt;&lt;span style=&quot;color: rgb(255, 255, 255);&quot;&gt;1&lt;/span&gt;&lt;/span&gt;&lt;/font&gt;" style="text;html=1;align=center;verticalAlign=middle;whiteSpace=wrap;rounded=0;rotation=-60;" vertex="1" parent="1">
          <mxGeometry x="567" y="249" width="20" height="30" as="geometry" />
        </mxCell>
        <mxCell id="k4-aQ5Q9utBKEgYW4s5q-53" value="&lt;div&gt;&lt;font style=&quot;font-size: 15px;&quot;&gt;&lt;span style=&quot;background-color: rgb(179, 179, 179);&quot;&gt;&lt;span style=&quot;color: rgb(255, 255, 255);&quot;&gt;fcf0:0:3&lt;/span&gt;&lt;/span&gt;&lt;span style=&quot;background-color: rgb(179, 179, 179);&quot;&gt;&lt;span style=&quot;color: rgb(255, 255, 255);&quot;&gt;:12::/127&lt;/span&gt;&lt;/span&gt;&lt;/font&gt;&lt;/div&gt;" style="text;html=1;align=center;verticalAlign=middle;whiteSpace=wrap;rounded=0;rotation=65;" vertex="1" parent="1">
          <mxGeometry x="664" y="290" width="60" height="30" as="geometry" />
        </mxCell>
        <mxCell id="k4-aQ5Q9utBKEgYW4s5q-54" value="&lt;font style=&quot;font-size: 15px;&quot;&gt;&lt;span style=&quot;background-color: rgb(179, 179, 179);&quot;&gt;&lt;span style=&quot;color: rgb(255, 255, 255);&quot;&gt;1&lt;/span&gt;&lt;/span&gt;&lt;/font&gt;" style="text;html=1;align=center;verticalAlign=middle;whiteSpace=wrap;rounded=0;rotation=65;" vertex="1" parent="1">
          <mxGeometry x="693" y="256" width="20" height="30" as="geometry" />
        </mxCell>
        <mxCell id="k4-aQ5Q9utBKEgYW4s5q-55" value="&lt;font style=&quot;font-size: 15px;&quot;&gt;&lt;span style=&quot;background-color: rgb(179, 179, 179);&quot;&gt;&lt;span style=&quot;color: rgb(255, 255, 255);&quot;&gt;0&lt;/span&gt;&lt;/span&gt;&lt;/font&gt;" style="text;html=1;align=center;verticalAlign=middle;whiteSpace=wrap;rounded=0;rotation=65;" vertex="1" parent="1">
          <mxGeometry x="718" y="306" width="20" height="30" as="geometry" />
        </mxCell>
        <mxCell id="k4-aQ5Q9utBKEgYW4s5q-57" value="&lt;div&gt;&lt;font style=&quot;font-size: 15px;&quot;&gt;&lt;span style=&quot;background-color: rgb(179, 179, 179);&quot;&gt;&lt;span style=&quot;color: rgb(255, 255, 255);&quot;&gt;fd00:0&lt;/span&gt;&lt;/span&gt;&lt;span style=&quot;background-color: rgb(179, 179, 179);&quot;&gt;&lt;span style=&quot;color: rgb(255, 255, 255);&quot;&gt;:6::/127&lt;/span&gt;&lt;/span&gt;&lt;/font&gt;&lt;/div&gt;" style="text;html=1;align=center;verticalAlign=middle;whiteSpace=wrap;rounded=0;rotation=90;" vertex="1" parent="1">
          <mxGeometry x="597" y="150" width="60" height="30" as="geometry" />
        </mxCell>
        <mxCell id="k4-aQ5Q9utBKEgYW4s5q-58" value="&lt;font style=&quot;font-size: 15px;&quot;&gt;&lt;span style=&quot;background-color: rgb(179, 179, 179);&quot;&gt;&lt;span style=&quot;color: rgb(255, 255, 255);&quot;&gt;0&lt;/span&gt;&lt;/span&gt;&lt;/font&gt;" style="text;html=1;align=center;verticalAlign=middle;whiteSpace=wrap;rounded=0;rotation=90;" vertex="1" parent="1">
          <mxGeometry x="640" y="175" width="20" height="30" as="geometry" />
        </mxCell>
        <mxCell id="k4-aQ5Q9utBKEgYW4s5q-59" value="&lt;font style=&quot;font-size: 15px;&quot;&gt;&lt;span style=&quot;background-color: rgb(179, 179, 179);&quot;&gt;&lt;span style=&quot;color: rgb(255, 255, 255);&quot;&gt;1&lt;/span&gt;&lt;/span&gt;&lt;/font&gt;" style="text;html=1;align=center;verticalAlign=middle;whiteSpace=wrap;rounded=0;rotation=90;" vertex="1" parent="1">
          <mxGeometry x="640" y="132" width="20" height="30" as="geometry" />
        </mxCell>
        <mxCell id="k4-aQ5Q9utBKEgYW4s5q-60" value="&lt;div&gt;&lt;font style=&quot;font-size: 15px;&quot;&gt;&lt;span style=&quot;background-color: rgb(179, 179, 179);&quot;&gt;&lt;span style=&quot;color: rgb(255, 255, 255);&quot;&gt;fd00:0&lt;/span&gt;&lt;/span&gt;&lt;span style=&quot;background-color: rgb(179, 179, 179);&quot;&gt;&lt;span style=&quot;color: rgb(255, 255, 255);&quot;&gt;:5::/127&lt;/span&gt;&lt;/span&gt;&lt;/font&gt;&lt;/div&gt;" style="text;html=1;align=center;verticalAlign=middle;whiteSpace=wrap;rounded=0;rotation=0;" vertex="1" parent="1">
          <mxGeometry x="109" y="514" width="60" height="30" as="geometry" />
        </mxCell>
        <mxCell id="k4-aQ5Q9utBKEgYW4s5q-61" value="&lt;font style=&quot;font-size: 15px;&quot;&gt;&lt;span style=&quot;background-color: rgb(179, 179, 179);&quot;&gt;&lt;span style=&quot;color: rgb(255, 255, 255);&quot;&gt;1&lt;/span&gt;&lt;/span&gt;&lt;/font&gt;" style="text;html=1;align=center;verticalAlign=middle;whiteSpace=wrap;rounded=0;rotation=0;" vertex="1" parent="1">
          <mxGeometry x="106" y="492" width="16" height="30" as="geometry" />
        </mxCell>
        <mxCell id="k4-aQ5Q9utBKEgYW4s5q-62" value="&lt;font style=&quot;font-size: 15px;&quot;&gt;&lt;span style=&quot;background-color: rgb(179, 179, 179);&quot;&gt;&lt;span style=&quot;color: rgb(255, 255, 255);&quot;&gt;0&lt;/span&gt;&lt;/span&gt;&lt;/font&gt;" style="text;html=1;align=center;verticalAlign=middle;whiteSpace=wrap;rounded=0;rotation=0;" vertex="1" parent="1">
          <mxGeometry x="153" y="491.5" width="18" height="30" as="geometry" />
        </mxCell>
        <mxCell id="k4-aQ5Q9utBKEgYW4s5q-63" value="&lt;div&gt;&lt;font style=&quot;font-size: 15px;&quot;&gt;&lt;span style=&quot;background-color: rgb(179, 179, 179);&quot;&gt;&lt;span style=&quot;color: rgb(255, 255, 255);&quot;&gt;fd00:0&lt;/span&gt;&lt;/span&gt;&lt;span style=&quot;background-color: rgb(179, 179, 179);&quot;&gt;&lt;span style=&quot;color: rgb(255, 255, 255);&quot;&gt;:2::/64&lt;/span&gt;&lt;/span&gt;&lt;/font&gt;&lt;/div&gt;" style="text;html=1;align=center;verticalAlign=middle;whiteSpace=wrap;rounded=0;rotation=0;" vertex="1" parent="1">
          <mxGeometry x="-71" y="514" width="60" height="30" as="geometry" />
        </mxCell>
        <mxCell id="k4-aQ5Q9utBKEgYW4s5q-64" value="&lt;font style=&quot;font-size: 15px;&quot;&gt;&lt;span style=&quot;background-color: rgb(179, 179, 179);&quot;&gt;&lt;span style=&quot;color: rgb(255, 255, 255);&quot;&gt;1&lt;/span&gt;&lt;/span&gt;&lt;/font&gt;" style="text;html=1;align=center;verticalAlign=middle;whiteSpace=wrap;rounded=0;rotation=0;" vertex="1" parent="1">
          <mxGeometry x="-32" y="491.5" width="16" height="30" as="geometry" />
        </mxCell>
        <mxCell id="k4-aQ5Q9utBKEgYW4s5q-65" value="&lt;font style=&quot;font-size: 15px;&quot;&gt;&lt;span style=&quot;background-color: rgb(179, 179, 179);&quot;&gt;&lt;span style=&quot;color: rgb(255, 255, 255);&quot;&gt;2&lt;/span&gt;&lt;/span&gt;&lt;/font&gt;" style="text;html=1;align=center;verticalAlign=middle;whiteSpace=wrap;rounded=0;rotation=0;" vertex="1" parent="1">
          <mxGeometry x="-123" y="404" width="16" height="30" as="geometry" />
        </mxCell>
        <mxCell id="k4-aQ5Q9utBKEgYW4s5q-67" value="&lt;font style=&quot;font-size: 15px;&quot;&gt;&lt;span style=&quot;background-color: rgb(179, 179, 179);&quot;&gt;&lt;span style=&quot;color: rgb(255, 255, 255);&quot;&gt;3&lt;/span&gt;&lt;/span&gt;&lt;/font&gt;" style="text;html=1;align=center;verticalAlign=middle;whiteSpace=wrap;rounded=0;rotation=0;" vertex="1" parent="1">
          <mxGeometry x="-123" y="492" width="16" height="30" as="geometry" />
        </mxCell>
        <mxCell id="k4-aQ5Q9utBKEgYW4s5q-68" value="&lt;font style=&quot;font-size: 15px;&quot;&gt;&lt;span style=&quot;background-color: rgb(179, 179, 179);&quot;&gt;&lt;span style=&quot;color: rgb(255, 255, 255);&quot;&gt;4&lt;/span&gt;&lt;/span&gt;&lt;/font&gt;" style="text;html=1;align=center;verticalAlign=middle;whiteSpace=wrap;rounded=0;rotation=0;" vertex="1" parent="1">
          <mxGeometry x="-123" y="573" width="16" height="30" as="geometry" />
        </mxCell>
        <mxCell id="k4-aQ5Q9utBKEgYW4s5q-69" value="&lt;div&gt;&lt;font style=&quot;font-size: 15px;&quot;&gt;&lt;span style=&quot;background-color: rgb(179, 179, 179);&quot;&gt;&lt;span style=&quot;color: rgb(255, 255, 255);&quot;&gt;fd00:0&lt;/span&gt;&lt;/span&gt;&lt;span style=&quot;background-color: rgb(179, 179, 179);&quot;&gt;&lt;span style=&quot;color: rgb(255, 255, 255);&quot;&gt;:3::/64&lt;/span&gt;&lt;/span&gt;&lt;/font&gt;&lt;/div&gt;" style="text;html=1;align=center;verticalAlign=middle;whiteSpace=wrap;rounded=0;rotation=90;" vertex="1" parent="1">
          <mxGeometry x="597" y="-10" width="60" height="30" as="geometry" />
        </mxCell>
        <mxCell id="k4-aQ5Q9utBKEgYW4s5q-71" value="&lt;font style=&quot;font-size: 15px;&quot;&gt;&lt;span style=&quot;background-color: rgb(179, 179, 179);&quot;&gt;&lt;span style=&quot;color: rgb(255, 255, 255);&quot;&gt;1&lt;/span&gt;&lt;/span&gt;&lt;/font&gt;" style="text;html=1;align=center;verticalAlign=middle;whiteSpace=wrap;rounded=0;rotation=90;" vertex="1" parent="1">
          <mxGeometry x="641" y="20" width="20" height="30" as="geometry" />
        </mxCell>
        <mxCell id="k4-aQ5Q9utBKEgYW4s5q-72" value="&lt;font style=&quot;font-size: 15px;&quot;&gt;&lt;span style=&quot;background-color: rgb(179, 179, 179);&quot;&gt;&lt;span style=&quot;color: rgb(255, 255, 255);&quot;&gt;2&lt;/span&gt;&lt;/span&gt;&lt;/font&gt;" style="text;html=1;align=center;verticalAlign=middle;whiteSpace=wrap;rounded=0;rotation=90;" vertex="1" parent="1">
          <mxGeometry x="529" y="-92" width="20" height="30" as="geometry" />
        </mxCell>
        <mxCell id="k4-aQ5Q9utBKEgYW4s5q-73" value="&lt;font style=&quot;font-size: 15px;&quot;&gt;&lt;span style=&quot;background-color: rgb(179, 179, 179);&quot;&gt;&lt;span style=&quot;color: rgb(255, 255, 255);&quot;&gt;3&lt;/span&gt;&lt;/span&gt;&lt;/font&gt;" style="text;html=1;align=center;verticalAlign=middle;whiteSpace=wrap;rounded=0;rotation=90;" vertex="1" parent="1">
          <mxGeometry x="618" y="-92" width="20" height="30" as="geometry" />
        </mxCell>
        <mxCell id="k4-aQ5Q9utBKEgYW4s5q-74" value="&lt;font style=&quot;font-size: 15px;&quot;&gt;&lt;span style=&quot;background-color: rgb(179, 179, 179);&quot;&gt;&lt;span style=&quot;color: rgb(255, 255, 255);&quot;&gt;4&lt;/span&gt;&lt;/span&gt;&lt;/font&gt;" style="text;html=1;align=center;verticalAlign=middle;whiteSpace=wrap;rounded=0;rotation=90;" vertex="1" parent="1">
          <mxGeometry x="710" y="-92" width="20" height="30" as="geometry" />
        </mxCell>
      </root>
    </mxGraphModel>
  </diagram>
</mxfile>
